<?xml version="1.0" encoding="UTF-8" standalone="no"?>
<svg
   viewBox="0 0 512 512"
   style="height: 512px; width: 512px;"
   version="1.1"
   id="svg1"
   sodipodi:docname="database-select.svg"
   inkscape:version="1.4 (86a8ad7, 2024-10-11)"
   xmlns:inkscape="http://www.inkscape.org/namespaces/inkscape"
   xmlns:sodipodi="http://sodipodi.sourceforge.net/DTD/sodipodi-0.dtd"
   xmlns="http://www.w3.org/2000/svg"
   xmlns:svg="http://www.w3.org/2000/svg">
  <defs
     id="defs1" />
  <sodipodi:namedview
     id="namedview1"
     pagecolor="#ffffff"
     bordercolor="#000000"
     borderopacity="0.25"
     inkscape:showpageshadow="2"
     inkscape:pageopacity="0.0"
     inkscape:pagecheckerboard="0"
     inkscape:deskcolor="#d1d1d1"
     inkscape:zoom="1.5097656"
     inkscape:cx="255.66882"
     inkscape:cy="256"
     inkscape:window-width="1920"
     inkscape:window-height="991"
     inkscape:window-x="-9"
     inkscape:window-y="-9"
     inkscape:window-maximized="1"
     inkscape:current-layer="svg1" />
  <g
     class=""
     transform="translate(0,0)"
     style=""
     id="g1">
    <path
       d="M256 19.11c-48.03 0-91.515 6.572-122.235 16.82-15.36 5.123-27.503 11.218-35.225 17.308C90.82 59.328 88 64.702 88 69.278c0 4.574 2.82 9.948 10.54 16.038 7.722 6.09 19.865 12.184 35.225 17.308 30.72 10.247 74.204 16.82 122.235 16.82 48.03 0 91.515-6.573 122.235-16.82 15.36-5.124 27.503-11.22 35.225-17.308 7.72-6.09 10.54-11.464 10.54-16.04 0-4.574-2.82-9.948-10.54-16.038-7.722-6.09-19.865-12.185-35.225-17.308C347.515 25.682 304.03 19.11 256 19.11zM88 99.434v92.63c0 5.84 5.338 13.804 19.285 21.862 13.947 8.058 35.283 15.424 61.976 20.564 53.387 10.283 120.093 10.283 173.48 0 26.692-5.14 48.028-12.505 61.975-20.563C418.662 205.87 424 197.905 424 192.067V99.434c-10.135 7.894-23.752 14.42-40.19 19.903-33.272 11.098-78.19 17.727-127.81 17.727-49.62 0-94.538-6.63-127.81-17.727-16.438-5.483-30.055-12.01-40.19-19.903zm0 122.75v95.32c0 5.84 5.338 13.803 19.285 21.86 13.947 8.06 35.283 15.425 61.976 20.566 53.387 10.282 120.093 10.282 173.48 0 26.692-5.14 48.028-12.506 61.975-20.564 13.947-8.058 19.285-16.022 19.285-21.86v-95.322c-3.18 2.475-6.685 4.812-10.47 7-16.58 9.578-39.446 17.215-67.46 22.61-56.023 10.79-124.117 10.79-180.14 0-28.014-5.395-50.88-13.032-67.46-22.61-3.785-2.188-7.29-4.525-10.47-7zm0 125.44v98.035h.386c.994 3.89 4.026 8.27 10.154 13.102 7.722 6.09 19.865 12.185 35.225 17.308 30.72 10.248 74.204 16.82 122.235 16.82 48.03 0 91.515-6.572 122.235-16.82 15.36-5.123 27.503-11.218 35.225-17.308 6.128-4.833 9.16-9.213 10.154-13.102H424V347.623c-3.18 2.475-6.685 4.813-10.47 7-16.58 9.58-39.446 17.215-67.46 22.61-56.023 10.79-124.117 10.79-180.14 0-28.014-5.395-50.88-13.03-67.46-22.61-3.785-2.187-7.29-4.525-10.47-7z"
       fill="#ffd700"
       fill-opacity="1"
       id="path1" />
  </g>
  <text
     xml:space="preserve"
     style="font-size:85.3333px;text-align:start;writing-mode:lr-tb;direction:ltr;text-anchor:start;fill:#000000"
     x="118.56144"
     y="453.05045"
     id="text1"><tspan
       sodipodi:role="line"
       id="tspan1"
       x="118.56144"
       y="453.05045"
       style="font-style:normal;font-variant:normal;font-weight:normal;font-stretch:normal;font-size:85.3333px;font-family:Consolas;-inkscape-font-specification:Consolas">SELECT</tspan></text>
</svg>
