<?xml version="1.0" encoding="UTF-8" standalone="no"?>
<!-- Created with Inkscape (http://www.inkscape.org/) -->

<svg
   width="250.26047mm"
   height="218.14189mm"
   viewBox="0 0 250.26047 218.14189"
   version="1.1"
   id="svg1"
   xml:space="preserve"
   sodipodi:docname="bee.svg"
   inkscape:version="1.4 (86a8ad7, 2024-10-11)"
   xmlns:inkscape="http://www.inkscape.org/namespaces/inkscape"
   xmlns:sodipodi="http://sodipodi.sourceforge.net/DTD/sodipodi-0.dtd"
   xmlns="http://www.w3.org/2000/svg"
   xmlns:svg="http://www.w3.org/2000/svg"
   xmlns:rdf="http://www.w3.org/1999/02/22-rdf-syntax-ns#"
   xmlns:cc="http://creativecommons.org/ns#"><sodipodi:namedview
     id="namedview1"
     pagecolor="#ffffff"
     bordercolor="#000000"
     borderopacity="0.25"
     inkscape:showpageshadow="2"
     inkscape:pageopacity="0.0"
     inkscape:pagecheckerboard="0"
     inkscape:deskcolor="#d1d1d1"
     inkscape:document-units="mm"
     inkscape:zoom="0.48693448"
     inkscape:cx="455.91349"
     inkscape:cy="633.55546"
     inkscape:window-width="1920"
     inkscape:window-height="991"
     inkscape:window-x="-9"
     inkscape:window-y="-9"
     inkscape:window-maximized="1"
     inkscape:current-layer="layer1" /><defs
     id="defs1" /><g
     inkscape:label="Ebene 1"
     inkscape:groupmode="layer"
     id="layer1"
     transform="translate(15.595399,-39.057449)"><path
       style="fill:#000000"
       d="m -14.880115,120.08024 c 0.82266,-0.64711 1.37918,-0.53892 2.73271,0.53128 1.8532,1.46526 3.1715702,1.96769 5.1632102,1.96769 2.6088,0 3.89156,-0.78799 5.71551,-3.511 3.78404,-5.64926 8.68511,-10.40591 15.0542798,-14.61068 2.08276,-1.37497 10.57594,-5.823112 11.11854,-5.823112 0.0874,0 4.45288,-0.582734 3.72549,0.670313 l -2.6195,4.512499 -1.96937,3.03099 c -7.48161,11.51469 -12.65132,24.95332 -15.1102098,39.27891 -1.18429,6.89977 -1.55385,11.03426 -1.72641,19.31458 l -0.16541,7.9375 -1.05833,3.37041 c -0.58209,1.85372 0.16771,3.02617 0.0727,3.02783 -0.095,0.002 -2.29973,-0.87175 -3.30581,-2.36334 -5.81032,-8.61427 -9.24668,-16.95844 -10.81922,-26.27126 -0.62469,-3.69954 -0.62846,-10.73707 -0.008,-14.49524 l 0.47318,-2.86494 -0.93594,-1.97082 c -1.17904,-2.48272 -3.6718402,-6.12094 -5.5761402,-8.13832 -1.70746,-1.80886 -1.89644,-2.70056 -0.76151,-3.59329 z m 20.8589202,71.29064 c 0.067,-0.14552 0.35532,-2.94926 0.64076,-6.23053 0.54031,-6.21116 0.88546,-7.73629 2.30766,-10.197 0.34385,-0.59493 1.3309998,-2.77655 2.1936598,-4.84805 0.86267,-2.07149 1.88035,-4.14457 2.26151,-4.60684 0.68705,-0.83326 2.65292,-3.77812 4.85324,-7.27015 0.62851,-0.99748 2.53853,-3.23308 4.24449,-4.96801 l 3.10174,-3.15442 4.91028,-2.56798 c 5.65281,-2.9563 6.83172,-3.45226 9.28877,-3.90774 0.98226,-0.18209 1.78594,-0.4206 1.78594,-0.53002 0,-0.50116 -1.14061,-1.56924 -1.83979,-1.72281 -0.90677,-0.19916 -1.73001,0.17305 -2.65813,1.20183 -0.46691,0.51754 -1.43966,0.98408 -3.30729,1.58621 -1.45521,0.46916 -3.40877,1.19509 -4.34124,1.61317 -0.93247,0.41808 -1.72211,0.72933 -1.75475,0.69166 -0.13457,-0.1553 1.7624,-8.03784 2.88178,-11.97474 1.50206,-5.28281 2.08288,-6.97713 2.42046,-7.06068 0.14552,-0.036 0.41702,0.5854 0.60332,1.38093 0.92278,3.9402 1.79117,5.77558 3.83286,8.10095 1.53817,1.75186 4.17773,2.57204 5.14966,1.60011 0.39622,-0.39623 0.39995,-0.44943 0.0315,-0.44943 -0.71838,0 -1.6873,-0.96482 -2.5737,-2.56283 -0.46928,-0.84602 -1.19484,-2.13552 -1.61236,-2.86556 -0.41751,-0.73004 -1.2476,-3.0712 -1.84464,-5.20259 -0.59703,-2.13138 -1.43533,-4.64674 -1.86288,-5.58968 -0.42756,-0.94294 -1.20112,-3.14515 -1.71904,-4.89378 -0.51792,-1.74864 -1.47679,-4.30898 -2.13082,-5.68965 -0.65403,-1.38068 -1.32105,-3.20715 -1.48227,-4.05885 -0.38281,-2.02232 -0.0987,-9.703332 0.44385,-11.999572 0.23182,-0.98113 1.64337,-4.27669 3.28644,-7.67291 1.58404,-3.27422 3.41956,-7.08422 4.07892,-8.46667 2.34667,-4.92017 4.265,-7.97466 6.72872,-10.71395 1.30964,-1.45613 3.01208,-3.42142 3.78319,-4.3673 2.60994,-3.20148 5.22813,-5.99398 6.63782,-7.07972 0.77196,-0.59456 3.24785,-2.23456 5.50197,-3.64444 2.25412,-1.40988 5.6474,-3.66874 7.54062,-5.01968 4.17072,-2.97608 5.71071,-3.77221 9.65993,-4.99388 4.84477,-1.4987 8.14715,-2.19921 15.18849,-3.22183 l 6.58952,-0.956999 7.962565,0.115265 c 7.03901,0.101895 8.21593,0.180849 10.14707,0.680714 3.94352,1.02077 5.14884,1.89783 8.05917,5.86432 1.35292,1.84388 4.70198,5.28211 8.1418,8.35854 1.92141,1.71844 2.04685,1.87262 2.77877,3.41542 1.34236,2.82949 2.24419,9.97008 2.24854,17.80365 0.004,6.64915 -0.29157,9.08542 -1.87688,15.48696 -1.40588,5.677 -1.75007,6.62434 -3.52581,9.704182 -0.62926,1.09141 -1.58974,2.81781 -2.13438,3.83646 -1.20266,2.24932 -2.65279,4.36115 -5.93799,8.64744 -3.12007,4.07085 -5.83449,6.89937 -10.07002,10.4933 -1.81901,1.54346 -4.56724,3.97164 -6.10717,5.39596 -1.53993,1.42432 -3.80465,3.39186 -5.03271,4.37232 -1.22807,0.98046 -2.48037,2.03271 -2.7829,2.33833 -0.30252,0.30563 -1.534835,1.07953 -2.738465,1.71979 -1.20363,0.64026 -3.21576,1.98854 -4.4714,2.99618 -1.25565,1.00763 -2.8783,2.25721 -3.60591,2.77683 -1.75245,1.25152 -2.25832,1.87016 -2.18091,2.66714 0.0816,0.84036 1.05174,1.03907 1.56005,0.31957 0.19596,-0.27737 0.91229,-0.74948 1.59185,-1.04914 0.67957,-0.29966 1.92972,-1.01562 2.77813,-1.59103 2.09802,-1.42294 5.11443,-3.25706 5.11443,-3.10982 0,0.0661 -0.59282,1.8593 -1.31737,3.98496 -2.03014,5.95592 -4.50347,16.57646 -4.50347,19.338 0,0.77048 -0.29321,0.7984 -0.93516,0.0891 -0.51503,-0.5691 -5.04359,-4.05954 -6.26542,-4.82915 -0.784,-0.49382 -1.6777,-0.59211 -1.91358,-0.21045 -0.0823,0.13309 0.29768,0.51657 0.84429,0.85218 1.73859,1.06745 6.75803,4.75881 8.37127,6.15633 0.85613,0.74165 2.3844,2.36049 3.39616,3.59742 1.01176,1.23693 3.40691,3.90216 5.322565,5.92273 1.91566,2.02058 3.63729,3.89396 3.82586,4.16307 0.18856,0.26912 1.03698,2.31394 1.88536,4.54405 1.73521,4.56127 2.0509,5.22936 3.51668,7.44248 1.55673,2.35044 1.96123,3.27931 2.30803,5.3 0.17368,1.01203 0.60921,2.6789 0.96784,3.70417 1.30856,3.74101 1.75816,6.79554 1.55952,10.59538 -0.2706,5.17647 -0.64571,6.74386 -2.47842,10.35606 -0.87559,1.72573 -2.01572,4.45512 -2.53363,6.06532 -1.16971,3.63662 -1.82687,4.67886 -5.20155,8.24951 -9.796215,10.36512 -11.583555,11.70149 -20.069935,15.00604 -2.10554,0.81988 -5.71533,2.38502 -8.02177,3.47807 -5.21318,2.47061 -7.30326,3.04892 -11.16873,3.0903 -2.64257,0.0283 -3.29551,-0.072 -7.09478,-1.09025 -2.3014,-0.61677 -5.1589,-1.42737 -6.35,-1.80133 -2.39904,-0.75319 -10.72067,-4.69831 -13.42171,-6.36295 -3.02212,-1.86253 -10.0317,-7.21581 -12.5403,-9.57715 -1.33116,-1.25301 -3.46672,-3.16403 -4.7457,-4.24671 -3.9642,-3.35576 -5.7512,-5.6604 -7.29537,-9.40858 -0.47961,-1.16416 -1.39273,-3.1287 -2.02915,-4.36562 -0.84785,-1.64787 -1.44822,-3.41579 -2.24623,-6.61459 -0.5989998,-2.40109 -1.5967298,-5.73484 -2.2171698,-7.40833 -0.72981,-1.96847 -1.32165,-4.21036 -1.67636,-6.35 -0.54553,-3.29072 -0.94206,-8.09437 -0.70982,-8.59896 z m 4.0729698,7.27604 c 0.36219,3.08204 0.71555,4.79134 1.4221,6.87917 0.51709,1.52797 1.37358,4.74266 1.90332,7.14375 0.70205,3.18215 1.27655,5.04702 2.11922,6.87917 0.63583,1.38244 1.52999,3.42627 1.98702,4.54184 1.1378,2.77726 3.1156,5.04106 7.39789,8.46764 1.94322,1.55492 4.14094,3.4207 4.88381,4.14618 0.74287,0.72548 3.3152,2.71165 5.7163,4.4137 3.53477,2.50569 5.37271,3.58356 9.65729,5.66359 6.90161,3.35053 7.93486,3.76025 12.96458,5.14084 6.06065,1.66357 6.51934,1.75796 8.51769,1.75286 2.73545,-0.007 4.92255,-0.58422 8.82815,-2.33001 4.59405,-2.05353 7.39586,-3.19491 10.83229,-4.41279 3.73043,-1.32208 7.73984,-3.79225 11.1125,-6.84637 3.076985,-2.78636 9.306815,-9.53413 9.920605,-10.74537 1.10531,-2.18123 1.32492,-2.07759 -4.43749,-2.09397 -27.706395,-0.0788 -57.831245,-10.71536 -79.698745,-28.14038 -4.07027,-3.24337 -9.52698,-8.22971 -11.37953,-10.39858 l -1.32047,-1.54595 -0.43115,2.23661 c -0.5701498,2.95761 -0.5694398,4.36316 0.005,9.24807 z m 3.71337,-12.8255 c 2.77795,3.04542 7.32227,7.31333 10.30432,9.67757 l 1.42033,1.12607 -0.1615,-1.03959 c -0.43563,-2.80415 -0.73331,-9.76984 -0.7285,-17.04688 0.005,-7.9958 0.23245,-12.39499 0.97008,-18.78542 0.20997,-1.81901 0.38284,-3.48216 0.38416,-3.69588 0.005,-0.86234 -3.29029,2.90506 -5.08467,5.81255 -1.0328,1.67349 -2.51055,3.83652 -3.28388,4.80674 -0.94209,1.18196 -1.84924,2.7971 -2.74917,4.8948 -0.73871,1.72191 -1.65002,3.65468 -2.02514,4.29503 -1.19873,2.04633 -1.91316,4.07182 -1.92481,5.4571 -0.0112,1.32682 -0.005,1.33658 2.87878,4.49791 z m 20.4353,-76.0745 c 0.67186,1.52797 1.49649,3.64133 1.83252,4.69635 0.33603,1.05503 0.70659,1.91823 0.82346,1.91823 0.11688,0 0.21251,-0.11832 0.21251,-0.26292 0,-1.02152 7.30853,-15.67408 9.49059,-19.027272 l 0.41457,-0.63706 -1.44685,0.18584 c -2.31749,0.29768 -8.9586,1.69172 -10.93009,2.29435 l -1.81033,0.55336 0.096,3.750502 0.096,3.75049 z m -0.37266,-14.124382 c 3.14024,-0.92995 8.78912,-2.04267 13.82448,-2.72314 5.13184,-0.6935 20.90756,-0.6956 26.45834,-0.004 14.9851,1.86839 28.658675,5.75388 42.068755,11.954272 2.11005,0.97563 4.56068,2.17797 5.44584,2.67187 l 1.60939,0.89801 0.53373,-0.59333 c 0.88484,-0.98364 2.03995,-2.82959 3.517,-5.62041 0.77017,-1.45521 1.91479,-3.598342 2.5436,-4.762502 1.11193,-2.05861 1.67266,-4.02831 3.42707,-12.03855 0.27066,-1.23575 0.37725,-3.61872 0.37872,-8.46666 0.002,-6.94559 -0.39042,-12.02304 -1.21225,-15.68084 l -0.43002,-1.91396 -5.0807,-5.15937 c -2.79438,-2.83766 -5.65331,-5.90071 -6.35317,-6.80678 -1.0296,-1.33298 -1.53699,-1.74638 -2.65841,-2.16595 -4.29473,-1.60687 -12.6288,-2.01122 -22.622895,-1.09762 -8.26,0.75508 -11.46355,1.31926 -17.59479,3.0986 -3.14894,0.91385 -4.52899,1.63457 -9.68606,5.05847 -2.38527,1.58364 -5.80843,3.76331 -7.60702,4.84371 -3.89669,2.34071 -5.80711,4.03058 -9.3786,8.29588 -1.47071,1.75641 -3.5486,4.14268 -4.61754,5.30281 -2.23699,2.42785 -3.81487,5.15497 -8.30549,14.35477 -3.3883,6.94151 -4.71519,9.84923 -4.71977,10.34279 -0.002,0.20834 0.18304,0.2934 0.45979,0.21144 z m 11.82743,89.398342 c 0.90383,7.58172 2.504,15.52997 4.68747,23.28333 0.57374,2.0373 1.18537,3.83828 1.35918,4.00219 1.14505,1.07981 19.29722,7.50719 21.20178,7.50719 0.24128,0 0.0953,-1.01662 -0.53304,-3.7131 -8.68746,-37.2796 -4.05215,-72.85812 13.79775,-105.90515 1.2423,-2.29999 2.90706,-5.25097 3.69945,-6.55774 0.79239,-1.30678 1.44071,-2.45169 1.44071,-2.54426 0,-0.0926 0.19771,-0.38676 0.43935,-0.65377 0.24165,-0.26702 0.36114,-0.563702 0.26554,-0.659292 -0.25927,-0.25928 -6.14521,-1.58123 -10.36218,-2.3273 -3.35062,-0.5928 -8.25477,-1.24956 -11.57552,-1.5502 l -1.25677,-0.11378 v 0.84134 c 0,0.59621 -0.55012,1.68526 -1.88811,3.737812 -3.21749,4.93584 -5.97894,9.81457 -8.82787,15.59648 -7.10645,14.42252 -11.08048,28.13704 -12.70087,43.83116 -0.50628,4.90351 -0.35341,20.13711 0.25313,25.22509 z m 46.84058,1.24478 c 1.05204,10.98174 4.20131,23.41653 8.663985,34.20939 l 1.42221,3.43958 2.23462,0.0821 c 1.22904,0.0451 2.71773,0.0115 3.30819,-0.0747 0.97218,-0.14196 1.14086,-0.28714 1.78608,-1.53725 0.39188,-0.75927 1.17219,-2.24263 1.73402,-3.29635 1.22125,-2.29049 1.60258,-4.34469 1.68266,-9.06434 l 0.0561,-3.3073 -1.48149,-3.0427 c -1.66846,-3.42674 -3.33775,-8.02422 -4.31897,-11.89513 -0.36309,-1.43237 -1.40004,-4.54713 -2.30433,-6.92169 l -1.64417,-4.31738 -3.3238,-3.44801 c -1.828085,-1.8964 -3.910565,-4.16238 -4.627735,-5.0355 -0.71716,-0.87313 -1.72696,-2.0407 -2.24399,-2.5946 l -0.94005,-1.0071 -0.16714,0.74251 c -0.33759,1.49981 -0.22737,12.98532 0.16379,17.06855 z M 106.85279,125.8671 c 1.41883,-1.37484 4.50892,-4.25439 6.86687,-6.39899 2.47296,-2.24921 4.96416,-4.78861 5.88698,-6.00086 0.87989,-1.15588 1.5998,-2.16696 1.5998,-2.24685 0,-0.0799 -1.04219,-0.66868 -2.31599,-1.30841 l -2.31598,-1.16316 -3.06415,4.40165 c -1.68528,2.4209 -3.75867,5.53274 -4.60754,6.91519 -1.58105,2.57487 -4.62967,7.96096 -4.62967,8.17937 0,0.067 1.16086,-1.00311 2.57968,-2.37794 z m -1.08495,45.66003 c 0.0509,-0.43656 0.22087,-1.92484 0.37773,-3.30729 1.70554,-15.03155 10.01249,-32.2738 23.26338,-48.28646 0.96338,-1.16417 1.83476,-2.25594 1.9364,-2.42615 0.11912,-0.19948 -0.99217,-1.03156 -3.12664,-2.34106 l -3.31145,-2.03159 0.8425,-1.09852 c 0.46338,-0.60418 0.93194,-1.20319 1.04126,-1.33112 0.36037,-0.42175 6.95644,3.78232 12.53937,7.9921 3.62392,2.73259 6.74406,5.39313 10.13159,8.63919 l 2.85947,2.74006 1.61482,-1.02671 c 10.96147,-6.96934 25.39798,-9.52382 38.57537,-6.82573 7.76003,1.58887 16.34545,5.64295 22.48959,10.61969 2.03542,1.6487 5.81037,5.39264 7.65793,7.59505 6.41379,7.64563 10.70227,17.91558 11.80827,28.27818 0.37825,3.54398 0.19154,10.4601 -0.3723,13.79057 -3.31176,19.56178 -16.90733,35.55072 -35.51421,41.76614 -5.63849,1.88347 -10.65776,2.68386 -16.83056,2.68386 -10.67833,0 -20.45816,-2.95245 -29.32309,-8.8524 -2.65724,-1.7685 -3.10868,-1.9848 -3.56346,-1.7074 -7.92919,4.83655 -20.17621,8.78474 -31.42186,10.12977 l -2.83846,0.33949 0.95932,-1.77611 0.95932,-1.77611 2.89305,-0.44414 c 1.59118,-0.24428 3.1096,-0.52599 3.37427,-0.62602 0.41508,-0.15688 0.16103,-0.61671 -1.84855,-3.34594 l -2.32976,-3.16407 -0.16871,-4.11197 c -0.36376,-8.8654 -1.10624,-11.42229 -6.27374,-21.60508 -3.58931,-7.07289 -4.60297,-8.86066 -5.95735,-10.50688 -0.57522,-0.69917 -0.61273,-0.95781 -0.57567,-3.96875 0.0218,-1.77147 0.0813,-3.57804 0.13217,-4.0146 z m 26.96404,9.62334 c 1.55713,10.60396 6.15605,19.83148 13.92871,27.94731 0.97567,1.01875 2.04859,2.26397 2.38427,2.76715 0.79933,1.19821 2.50628,2.48245 4.09375,3.07998 0.70017,0.26355 1.86835,0.85572 2.59595,1.31593 0.72761,0.46022 2.44665,1.40077 3.82011,2.09013 7.11138,3.56928 14.01521,5.211 21.97676,5.22603 8.06648,0.0152 14.53026,-1.42612 21.6162,-4.82016 14.04557,-6.72759 23.97982,-19.41532 27.22885,-34.77591 0.83637,-3.95414 1.15056,-11.58668 0.64552,-15.68142 -1.43052,-11.59819 -6.49875,-21.77069 -14.88631,-29.87845 -6.91839,-6.68762 -14.95923,-10.91484 -24.68238,-12.97601 -3.19616,-0.67754 -3.87962,-0.72915 -9.65729,-0.72915 -5.76199,0 -6.46508,0.0527 -9.59272,0.71944 -5.83867,1.24461 -11.00304,3.2072 -15.53813,5.90486 -1.15415,0.68654 -2.04354,1.33713 -1.97641,1.44575 0.1153,0.18655 -1.46396,1.23415 -3.16614,2.10027 -1.06773,0.54329 -5.88957,5.18719 -7.92546,7.63299 -5.06065,6.07957 -8.80876,13.89856 -10.34657,21.58414 -0.83035,4.14982 -0.83968,4.25094 -0.88931,9.63878 -0.0276,3.00169 0.10092,5.57184 0.3706,7.40834 z m 37.69151,6.71181 c 0.30192,-2.06992 1.59494,-3.85179 3.56742,-4.91615 0.8925,-0.4816 1.49364,-0.57108 3.83646,-0.57108 2.30942,0 2.95667,0.0937 3.83646,0.55543 l 1.05833,0.55543 2.64583,-1.28226 c 1.45521,-0.70523 2.80605,-1.2826 3.00187,-1.28303 0.60814,-0.001 1.89292,1.06863 1.89292,1.57643 0,0.26556 0.16208,0.54503 0.36016,0.62105 0.58009,0.2226 0.66681,1.11637 0.20308,2.09277 -0.23702,0.49904 -1.20952,1.62215 -2.16111,2.49581 l -1.73017,1.58847 0.47543,1.37548 c 0.87295,2.5256 0.0242,4.57985 -2.88525,6.98281 -2.74399,2.26635 -4.04435,2.25786 -8.88113,-0.058 -4.88804,-2.3404 -5.99701,-4.40805 -5.2203,-9.73316 z m 4.16273,5.41383 c 0.40018,0.45479 1.7914,1.37303 3.09158,2.04052 2.81192,1.44359 3.93377,1.55738 5.16231,0.52363 1.17535,-0.98899 1.37259,-1.49423 1.49072,-3.81862 0.0986,-1.93902 0.0487,-2.17899 -0.77574,-3.73411 -0.68675,-1.29542 -1.13291,-1.79512 -2.02309,-2.26585 -2.46227,-1.30209 -6.59156,-0.38701 -7.42326,1.64503 -0.11912,0.29105 -0.22413,1.48617 -0.23335,2.65583 -0.0154,1.9551 0.0419,2.19337 0.71083,2.95357 z m -1.53822,-46.80688 c 0.35023,-1.0925 1.7153,-3.3481 3.03475,-5.01454 0.88527,-1.11807 1.62508,-1.71377 2.92017,-2.35134 1.56187,-0.76891 1.90431,-0.84028 3.44023,-0.71699 2.1327,0.17119 4.67944,1.32106 6.36302,2.87293 1.47096,1.35588 1.62692,1.62785 2.27532,3.96769 0.63693,2.29843 0.63192,2.88643 -0.0379,4.44337 l -0.54206,1.26006 0.97391,1.43482 c 1.42189,2.09482 2.72799,4.92458 2.56342,5.55388 -0.0865,0.33073 -0.43869,0.59772 -0.91387,0.69276 -0.59201,0.1184 -0.80972,0.33752 -0.92927,0.93529 -0.19635,0.98172 -0.53759,1.11092 -1.93808,0.7338 -0.8014,-0.21579 -1.61636,-0.79016 -2.872,-2.02413 -1.68701,-1.6579 -1.78374,-1.71204 -2.56564,-1.43617 -2.23865,0.78984 -4.95928,-0.11814 -8.60187,-2.87079 -2.44186,-1.84527 -3.24625,-3.08587 -3.33193,-5.13876 -0.0373,-0.89411 0.0355,-1.94795 0.16176,-2.34188 z m 3.47598,3.26626 c 0.15626,0.29197 1.48441,1.41524 2.95145,2.49615 2.02192,1.48974 2.87454,1.96528 3.52366,1.96528 0.69108,0 0.88813,-0.12671 1.02114,-0.65664 0.0907,-0.36116 0.51674,-0.83864 0.94688,-1.06108 0.9401,-0.48614 1.32692,-1.14097 1.32692,-2.24627 0,-0.54338 0.22991,-1.03684 0.67543,-1.44974 0.50944,-0.47213 0.74255,-1.0571 0.94855,-2.38028 0.26191,-1.68228 0.24513,-1.79101 -0.40864,-2.64816 -0.84606,-1.10923 -3.05983,-2.21919 -4.84865,-2.43105 -2.15256,-0.25494 -3.2884,0.67574 -5.68874,4.66117 -0.76646,1.27261 -0.95034,2.81199 -0.448,3.75062 z m 36.544,34.92158 c 0.68352,-1.69305 1.55124,-2.31197 3.60032,-2.56798 1.91546,-0.23932 2.879,0.24336 4.33385,2.17106 1.11245,1.474 1.14222,1.56538 1.11631,3.42669 -0.045,3.23228 -1.15671,4.41126 -4.20076,4.45493 -1.92072,0.0276 -3.8021,-0.79018 -4.69142,-2.03911 -0.84648,-1.18877 -0.91569,-3.56958 -0.1583,-5.44559 z m 3.91772,1.81902 c 0.72841,0.38983 1.5875,-0.0988 1.5875,-0.90295 0,-0.83183 -0.63043,-1.31207 -1.45177,-1.10593 -0.5219,0.13099 -0.6649,0.3345 -0.6649,0.94628 0,0.50861 0.18385,0.87779 0.52917,1.0626 z m -2.90866,-27.64896 c 0.81866,-2.58195 2.00372,-3.47472 4.29802,-3.23793 1.7325,0.17881 2.78917,0.68486 4.4946,2.1525 1.53809,1.32363 1.96368,2.398 1.50428,3.79741 -0.59819,1.82215 -1.5259,2.98796 -2.84044,3.56944 -1.1039,0.48831 -1.39473,0.5146 -2.6893,0.24306 -2.09801,-0.44007 -4.08891,-1.4854 -4.48636,-2.3556 -0.44418,-0.97251 -0.59313,-3.18384 -0.2808,-4.16888 z m 4.10846,3.57679 c 0.59886,0.32049 0.72914,0.30041 1.21719,-0.18764 0.45161,-0.45162 0.49436,-0.64407 0.2461,-1.10796 -0.29231,-0.54618 -1.54916,-0.79338 -1.95753,-0.38501 -0.41357,0.41357 -0.14092,1.34068 0.49424,1.68061 z m 8.37573,19.70654 c 3.46944,-4.24916 3.78231,-8.19631 0.98285,-12.39942 -1.12628,-1.69099 -1.23212,-2.02037 -0.64921,-2.02037 0.45163,0 1.8174,1.90778 2.54772,3.5588 1.6648,3.76356 0.95237,7.59002 -2.13299,11.45631 -1.02588,1.28554 -1.6661,1.67941 -1.93528,1.19062 -0.0601,-0.10914 0.47401,-0.91281 1.18691,-1.78594 z"
       id="path1"
       sodipodi:nodetypes="csssssscssscscssccssccssssssscsssssssssscsssssssssssssssssssscssssscssssssssssssssssssssssssssssssssssssssssssssssssscssssssssssssssssscscccscscscsssssccsssscsscccccscsscsssscscsscssssssscccsssscssssssscssssscsccsssscssscssscsccssssscssssssssscsssscssssssssssscccssscsssssssssssssssssscssssscssssscscsssscsssssssssssssssssssscsssssssssssssssssssssssssscsssssssssssssssssssssssssss" /><path
       style="fill:#ffff00;stroke-width:0.384217"
       d="m 88.535292,144.51776 c 1.28791,-1.28791 6.789613,-5.33812 9.49371,-6.98901 2.961748,-1.8082 4.292368,-2.90337 13.823758,-11.37766 6.22406,-5.53377 10.16186,-9.40645 12.01178,-11.81313 l 0.8448,-1.09907 2.95531,1.87439 c 1.62542,1.03092 3.0112,2.04419 3.0795,2.25172 0.0683,0.20753 -1.19106,2.01986 -2.79858,4.0274 -11.72943,14.64816 -19.15534,29.85344 -21.67275,44.3771 -0.2564,1.47924 -0.57543,5.01737 -0.70897,7.86252 l -0.24279,5.17299 -4.99396,-5.55721 c -2.74668,-3.05647 -5.732098,-6.27241 -6.634264,-7.14653 -1.14014,-1.1047 -1.480042,-1.65081 -1.114724,-1.791 0.311468,-0.11952 0.612807,-1.03728 0.739709,-2.25286 0.341545,-3.27164 2.088282,-10.56603 3.909782,-16.32727 0.92492,-2.92544 1.533507,-5.37379 1.352413,-5.44077 -0.181094,-0.067 -1.677705,0.7222 -3.325802,1.75373 -5.387179,3.37182 -6.968032,4.25814 -7.193227,4.03295 -0.383556,-0.38356 -0.244904,-0.83909 0.474305,-1.55829 z"
       id="path4" /><path
       style="fill:#ffff00;stroke-width:0.384217"
       d="m 93.851867,170.38011 c 0.759708,0.84527 3.22916,3.52519 5.48767,5.95537 4.684603,5.04067 4.670423,5.01252 8.417813,16.71345 1.28589,4.01507 3.03597,8.7394 3.88907,10.4985 1.37209,2.82926 1.55084,3.51655 1.54887,5.95537 -0.004,4.47697 -0.59489,7.09646 -2.39733,10.62067 -1.48823,2.90984 -1.80412,3.28504 -2.99401,3.5561 -0.73163,0.16666 -2.20316,0.20754 -3.27006,0.0908 l -1.93983,-0.21218 -2.15994,-5.64922 c -5.562848,-14.54939 -7.992972,-27.14219 -7.973941,-41.32062 l 0.0104,-7.74515 z"
       id="path5" /><path
       style="fill:#ffff00;stroke-width:0.384217"
       d="m 108.33122,121.58451 c 2.57704,-4.2307 5.11874,-8.06716 7.43893,-11.22834 l 0.90915,-1.23869 2.07806,1.01917 c 2.39125,1.17278 2.3809,1.32411 -0.28878,4.22037 -2.48701,2.69809 -12.95589,12.53637 -12.95061,12.17052 0.003,-0.18283 1.26861,-2.4072 2.81325,-4.94303 z"
       id="path6" /><path
       style="fill:#ffff00;stroke-width:0.384217"
       d=""
       id="path7" /><path
       style="fill:#ffff00;stroke-width:0.384217"
       d="m 45.608158,160.09973 c 1.524862,-18.46464 8.378938,-38.07848 19.916044,-56.99238 1.918578,-3.145311 3.488325,-6.040495 3.488325,-6.433746 0,-0.648171 0.224449,-0.691123 2.401358,-0.459541 6.151475,0.654399 18.439339,2.902143 19.768844,3.616195 0.315648,0.169527 -0.511916,1.949872 -2.613356,5.622122 -13.113488,22.91575 -19.570284,44.95846 -20.538125,70.11466 -0.436068,11.33435 0.640586,23.2202 3.304268,36.47785 0.825404,4.1082 1.461661,7.50683 1.413904,7.55252 -0.286766,0.27438 -15.030143,-4.79386 -18.602455,-6.39484 l -2.378493,-1.06596 -0.972984,-3.20425 c -4.533172,-14.92877 -6.47646,-33.22251 -5.18733,-48.83263 z"
       id="path8" /><path
       style="fill:#ffff00;stroke-width:0.384217"
       d="m 11.278095,179.99054 c 0.106288,-0.41989 1.358521,-3.19255 2.782747,-6.16147 2.411219,-5.0264 7.479403,-12.9667 10.416982,-16.32024 l 1.177959,-1.34476 -0.205044,2.3053 c -0.990489,11.13603 -1.089898,13.88797 -0.87439,24.20569 0.128006,6.12827 0.349271,11.64802 0.491707,12.26611 l 0.258969,1.1238 -1.306343,-0.92588 c -1.881238,-1.33333 -10.635033,-9.88755 -11.929155,-11.65719 -1.078854,-1.47526 -1.196234,-1.97908 -0.813432,-3.49136 z"
       id="path9" /><path
       style="fill:#ffff00;stroke-width:0.384217"
       d="m 35.054066,99.027409 c 3.00215,-0.822214 10.478966,-2.311445 10.824152,-2.155957 0.150357,0.06773 -1.845622,4.327448 -4.435512,9.466038 -3.331094,6.6092 -4.780222,9.13865 -4.952677,8.64489 -0.134081,-0.3839 -0.905378,-2.34053 -1.713992,-4.34807 -1.196367,-2.97019 -1.51792,-4.33343 -1.726356,-7.31893 l -0.256143,-3.66887 z"
       id="path10" /><path
       style="fill:#ffff00;stroke-width:0.384217"
       d="m 132.8386,167.91281 c 0.95208,-8.21384 4.94107,-17.64024 10.34365,-24.44317 2.38328,-3.00102 7.62858,-8.00808 9.2698,-8.84877 0.70422,-0.36072 1.85175,-1.15358 2.55008,-1.76191 1.50881,-1.31436 7.01528,-4.12165 10.26858,-5.2351 6.75231,-2.31098 8.38484,-2.56492 16.5096,-2.56806 7.12278,-0.003 7.96724,0.0723 11.55539,1.02757 9.01106,2.3989 16.02285,6.27589 22.37291,12.37052 10.40195,9.98356 15.98099,23.59884 15.28631,37.30526 -0.3105,6.12641 -0.78016,8.83923 -2.33956,13.51349 -5.12983,15.37663 -17.00947,27.06036 -32.4669,31.93151 -5.41452,1.70629 -9.2295,2.14341 -16.54946,1.89623 -9.52037,-0.32149 -13.33625,-1.48966 -25.2189,-7.72034 -3.16297,-1.6585 -3.91174,-2.27616 -7.05147,-5.81665 -4.33652,-4.89005 -6.11721,-7.24157 -8.28432,-10.93994 -5.2842,-9.01797 -7.49825,-19.90463 -6.24571,-30.71064 z m 38.10171,26.28877 c 0.71118,1.26214 1.50316,1.86311 4.43044,3.3619 4.45393,2.28045 6.19144,2.40855 8.75411,0.64538 0.94301,-0.64881 2.16598,-1.86178 2.7177,-2.69548 0.90128,-1.36193 0.98009,-1.76252 0.77623,-3.94559 l -0.22689,-2.42975 1.90087,-1.87228 c 2.03089,-2.00035 2.25778,-2.79665 1.32794,-4.66056 -1.01753,-2.03967 -2.04889,-2.17823 -5.15033,-0.69191 -2.66407,1.27672 -2.74858,1.29093 -4.16329,0.69982 -1.03528,-0.43257 -2.22812,-0.55303 -4.21419,-0.42557 -3.29279,0.21132 -5.14054,1.35612 -6.29616,3.90087 -1.04658,2.30463 -0.97905,6.12086 0.14357,8.11317 z m 2.59967,-42.61521 c 1.78696,2.89136 6.62306,5.5169 10.18559,5.5298 2.0983,0.008 2.44146,0.12623 3.45796,1.19539 1.23782,1.30197 2.86429,2.271 3.81173,2.271 0.67976,0 3.27212,-2.43515 3.27212,-3.0737 0,-0.5393 -1.81501,-4.12848 -2.77789,-5.49329 -0.65884,-0.93384 -0.69589,-1.22531 -0.28262,-2.22305 0.59513,-1.43675 0.28573,-4.79763 -0.6032,-6.55256 -1.38026,-2.72491 -5.22308,-4.93216 -8.59749,-4.93825 -3.08076,-0.006 -5.00647,1.27113 -7.36358,4.88186 -1.68565,2.58216 -1.89139,3.12736 -1.89139,5.01193 0,1.46219 0.24335,2.50837 0.78877,3.39087 z m 39.16025,37.97941 c 0.76528,2.01284 4.19982,3.25655 6.94886,2.51631 1.83314,-0.49361 2.66615,-1.9647 2.66615,-4.70839 0,-2.12511 -1.73958,-4.64445 -3.64001,-5.27165 -1.58086,-0.52173 -3.9754,0.0118 -4.96605,1.10643 -1.23992,1.3701 -1.73031,4.45999 -1.00895,6.3573 z m 1.41258,-26.47257 c 0.36343,0.94707 3.90738,2.47605 5.74926,2.48043 2.62546,0.006 4.75847,-2.29397 4.75847,-5.13145 0,-1.09645 -0.30544,-1.60005 -1.73216,-2.8559 -4.38318,-3.85823 -9.02592,-2.40277 -9.02592,2.82956 0,1.11372 0.11266,2.31854 0.25035,2.67736 z m 11.62059,21.31083 c 0.18942,0 0.87995,-0.60995 1.5345,-1.35544 3.64874,-4.15569 4.11595,-9.91978 1.13732,-14.03165 -1.84347,-2.54484 -2.66671,-1.59941 -0.94321,1.08323 2.5347,3.9453 2.17025,7.93827 -1.07759,11.80645 -0.95989,1.14322 -1.3129,2.49741 -0.65102,2.49741 z"
       id="path11" /><path
       style="fill:#000000;stroke-width:0.384217"
       d="m 177.91991,144.96281 c 1.91044,-2.83685 3.13576,-3.70446 4.79275,-3.3936 1.61486,0.30295 3.92659,1.44174 4.61807,2.27492 0.65563,0.78998 0.32883,3.85043 -0.51015,4.77749 -0.34197,0.37787 -0.62177,1.04834 -0.62177,1.48992 0,0.80379 -2.69009,3.93933 -3.37968,3.93933 -0.20141,0 -1.6846,-0.96282 -3.29597,-2.13959 -2.73551,-1.99772 -2.92978,-2.23372 -2.92978,-3.55914 0,-0.98213 0.40876,-2.02652 1.32653,-3.38933 z"
       id="path12" /><path
       style="fill:#000000;stroke-width:0.384217"
       d="m 174.15998,188.54283 c 0.36558,-2.15871 3.51861,-3.47332 6.31856,-2.63443 1.72149,0.51577 3.31199,2.55818 3.65943,4.69919 0.45314,2.7924 -1.10112,5.70719 -3.04327,5.70719 -0.93029,0 -4.40798,-1.67431 -5.77399,-2.77985 -1.12052,-0.90686 -1.54407,-2.72847 -1.16073,-4.9921 z"
       id="path13" /><path
       style="fill:#ffff00;fill-opacity:1;stroke-width:0.384217"
       d="m 6.566543,175.5219 c 0.3159073,-0.85839 0.6065203,-4.16428 0.7599495,-8.64489 0.5636366,-16.45979 2.4756427,-27.59058 6.7739785,-39.43486 3.226912,-8.89191 10.004616,-21.37731 13.390076,-24.66621 l 1.563378,-1.51879 v 2.97167 c 0,2.63793 0.21164,3.52052 1.884426,7.85838 1.036436,2.68769 3.033932,8.34465 4.438883,12.57104 2.474883,7.44499 4.927345,12.64211 6.195258,13.12865 0.861033,0.33041 0.634587,0.89529 -0.358902,0.89529 -2.505284,0 -5.572591,-3.6346 -6.990583,-8.28346 -0.544057,-1.78369 -1.144204,-3.24306 -1.333661,-3.24306 -0.628142,0 -5.584965,17.81066 -5.294334,19.02339 0.144897,0.60462 7.921242,-2.31084 10.032564,-3.76135 1.239808,-0.85177 1.609807,-0.94122 2.401358,-0.58057 1.504095,0.68532 1.090975,1.29863 -1.22365,1.81662 -1.187657,0.26579 -4.688838,1.76666 -7.780401,3.33526 -5.214506,2.64576 -5.837449,3.08066 -8.613601,6.01354 -4.215878,4.45388 -9.635741,12.75599 -12.4733176,19.10653 -1.2747043,2.85282 -2.4438107,5.60586 -2.5980152,6.11787 l -0.280371,0.93093 -0.5157311,-0.93093 c -0.6146721,-1.10952 -0.6158415,-0.96999 0.022701,-2.70505 z"
       id="path14" /></g><metadata
     id="metadata14"><rdf:RDF><cc:Work
         rdf:about=""><cc:license
           rdf:resource="http://creativecommons.org/licenses/by/4.0/" /></cc:Work><cc:License
         rdf:about="http://creativecommons.org/licenses/by/4.0/"><cc:permits
           rdf:resource="http://creativecommons.org/ns#Reproduction" /><cc:permits
           rdf:resource="http://creativecommons.org/ns#Distribution" /><cc:requires
           rdf:resource="http://creativecommons.org/ns#Notice" /><cc:requires
           rdf:resource="http://creativecommons.org/ns#Attribution" /><cc:permits
           rdf:resource="http://creativecommons.org/ns#DerivativeWorks" /></cc:License></rdf:RDF></metadata></svg>
