<?xml version="1.0" encoding="UTF-8" standalone="no"?>
<!-- Created with Inkscape (http://www.inkscape.org/) -->

<svg
   width="50mm"
   height="50mm"
   viewBox="0 0 50 50.000001"
   version="1.1"
   id="svg1"
   inkscape:export-filename="Rastergrafik.svg"
   inkscape:export-xdpi="96"
   inkscape:export-ydpi="96"
   xmlns:inkscape="http://www.inkscape.org/namespaces/inkscape"
   xmlns:sodipodi="http://sodipodi.sourceforge.net/DTD/sodipodi-0.dtd"
   xmlns="http://www.w3.org/2000/svg"
   xmlns:svg="http://www.w3.org/2000/svg">
  <sodipodi:namedview
     id="namedview1"
     pagecolor="#505050"
     bordercolor="#eeeeee"
     borderopacity="1"
     inkscape:showpageshadow="0"
     inkscape:pageopacity="0"
     inkscape:pagecheckerboard="0"
     inkscape:deskcolor="#d1d1d1"
     inkscape:document-units="mm" />
  <defs
     id="defs1" />
  <g
     inkscape:label="Ebene 1"
     inkscape:groupmode="layer"
     id="layer1"
     transform="translate(-43.740783,-61.770787)">
    <path
       style="font-size:22.5844px;font-family:Monospace;-inkscape-font-specification:Monospace;fill:#ffe200;stroke-width:2.02763"
       d="m 52.709363,74.605949 q -1.395884,3.066322 -2.088578,6.119197 -0.682199,3.039426 -0.682199,6.132645 0,3.079771 0.682199,6.132644 0.692694,3.052875 2.088578,6.146094 h -1.679258 q -1.5848,-3.200811 -2.361457,-6.226786 -0.776657,-3.039425 -0.776657,-6.051952 0,-2.999079 0.776657,-6.038504 0.776657,-3.039424 2.361457,-6.213338 z m 8.78462,16.79753 h 2.644831 v 4.101878 h -2.644831 z m 19.007103,-12.668753 -3.75734,2.609064 3.75734,2.622513 -0.598235,1.317979 -3.526442,-2.730102 v 5.070191 H 75.169442 V 82.55418 l -3.526443,2.730102 -0.598235,-1.317979 3.75734,-2.622513 -3.75734,-2.609064 0.598235,-1.331429 3.526443,2.730103 v -5.070191 h 1.206967 V 80.1334 l 3.526442,-2.730103 z m 5.394618,-4.128777 h 1.679258 q 1.584801,3.173914 2.361458,6.213338 0.776657,3.039425 0.776657,6.038504 0,3.025976 -0.776657,6.065401 -0.776657,3.039425 -2.361458,6.213337 h -1.679258 q 1.395884,-3.120118 2.078082,-6.172992 0.692694,-3.052873 0.692694,-6.105746 0,-3.066322 -0.692694,-6.119197 -0.682198,-3.052873 -2.078082,-6.132645 z"
       id="text1"
       aria-label="(.*)" />
  </g>
</svg>
